<svg width="100%" height="100%" viewBox="0 0 428 926" fill="none" xmlns="http://www.w3.org/2000/svg">
<path opacity="0.1" fill-rule="evenodd" clip-rule="evenodd" d="M-56.2656 836.562C10.4659 836.562 64.5625 782.466 64.5625 715.734C64.5625 649.003 10.4659 594.906 -56.2656 594.906C-122.997 594.906 -177.094 649.003 -177.094 715.734C-177.094 782.466 -122.997 836.562 -56.2656 836.562Z" fill="#3D3D3D"/>
<path opacity="0.2" fill-rule="evenodd" clip-rule="evenodd" d="M-53 928C62.4275 928 156 834.428 156 719C156 603.572 62.4275 510 -53 510C-168.428 510 -262 603.572 -262 719C-262 834.428 -168.428 928 -53 928Z" fill="#3D3D3D" stroke="#9CA8C2"/>
<path opacity="0.1" fill-rule="evenodd" clip-rule="evenodd" d="M345.734 282.562C412.466 282.562 466.562 228.466 466.562 161.734C466.562 95.0028 412.466 40.9062 345.734 40.9062C279.003 40.9062 224.906 95.0028 224.906 161.734C224.906 228.466 279.003 282.562 345.734 282.562Z" fill="#3D3D3D"/>
<path opacity="0.2" fill-rule="evenodd" clip-rule="evenodd" d="M349 374C464.428 374 558 280.428 558 165C558 49.5725 464.428 -44 349 -44C233.572 -44 140 49.5725 140 165C140 280.428 233.572 374 349 374Z" fill="#3D3D3D" stroke="#9CA8C2"/>
<path opacity="0.1" fill-rule="evenodd" clip-rule="evenodd" d="M29 288C42.2548 288 53 277.255 53 264C53 250.745 42.2548 240 29 240C15.7452 240 5 250.745 5 264C5 277.255 15.7452 288 29 288Z" fill="#3D3D3D"/>
<path opacity="0.2" fill-rule="evenodd" clip-rule="evenodd" d="M236 634C241.523 634 246 629.523 246 624C246 618.477 241.523 614 236 614C230.477 614 226 618.477 226 624C226 629.523 230.477 634 236 634Z" fill="#3D3D3D"/>
</svg>
