<svg width="100%" height="100%" viewBox="0 0 25 25" fill="none" xmlns="http://www.w3.org/2000/svg">
<g id="material-symbols:flip-camera-ios">
<path id="Vector" d="M16.9271 10.9375L14.323 13.5417L15.4167 14.6354L16.0938 13.9583C15.9896 14.8785 15.599 15.6469 14.9219 16.2635C14.2448 16.8795 13.4375 17.1875 12.5 17.1875C12.257 17.1875 12.0313 17.166 11.823 17.1229C11.6146 17.0792 11.4063 17.0139 11.198 16.9271L10.0521 18.0729C10.4167 18.2812 10.8032 18.4462 11.2115 18.5677C11.6191 18.6892 12.0487 18.75 12.5 18.75C13.8889 18.75 15.0737 18.2812 16.0542 17.3437C17.0355 16.4062 17.5695 15.2604 17.6563 13.9062L18.4375 14.6354L19.5313 13.5417L16.9271 10.9375ZM8.07296 16.1458L10.6771 13.5417L9.58337 12.4479L8.90629 13.125C9.01046 12.2049 9.40108 11.4365 10.0782 10.8198C10.7552 10.2038 11.5625 9.89583 12.5 9.89583C12.7431 9.89583 12.9688 9.91736 13.1771 9.96042C13.3855 10.0042 13.5938 10.0694 13.8021 10.1562L14.948 9.01042C14.5834 8.80208 14.1973 8.63715 13.7896 8.51562C13.3813 8.3941 12.9514 8.33333 12.5 8.33333C11.1112 8.33333 9.92643 8.80208 8.94587 9.73958C7.96462 10.6771 7.4306 11.8229 7.34379 13.1771L6.56254 12.4479L5.46879 13.5417L8.07296 16.1458ZM4.16671 21.875C3.59379 21.875 3.10351 21.6712 2.69587 21.2635C2.28754 20.8552 2.08337 20.3646 2.08337 19.7917V7.29167C2.08337 6.71875 2.28754 6.22847 2.69587 5.82083C3.10351 5.4125 3.59379 5.20833 4.16671 5.20833H7.44796L9.37504 3.125H15.625L17.5521 5.20833H20.8334C21.4063 5.20833 21.8969 5.4125 22.3053 5.82083C22.7129 6.22847 22.9167 6.71875 22.9167 7.29167V19.7917C22.9167 20.3646 22.7129 20.8552 22.3053 21.2635C21.8969 21.6712 21.4063 21.875 20.8334 21.875H4.16671Z" fill="#D9D9D9"/>
</g>
</svg>
