<svg width="100%" height="100%" viewBox="0 0 25 25" fill="none" xmlns="http://www.w3.org/2000/svg">
<g id="clarity:image-gallery-solid" clip-path="url(#clip0_4_638)">
<path id="Vector" d="M20.9306 2.08333C20.9306 1.89915 20.8574 1.72252 20.7272 1.59228C20.597 1.46205 20.4203 1.38889 20.2361 1.38889H4.95836C4.77418 1.38889 4.59755 1.46205 4.46731 1.59228C4.33708 1.72252 4.26392 1.89915 4.26392 2.08333V2.77777H20.9306V2.08333Z" fill="#D9D9D9"/>
<path id="Vector_2" d="M22.3055 4.86112C22.3055 4.67694 22.2324 4.5003 22.1021 4.37007C21.9719 4.23984 21.7953 4.16667 21.6111 4.16667H3.55553C3.37135 4.16667 3.19472 4.23984 3.06448 4.37007C2.93425 4.5003 2.86108 4.67694 2.86108 4.86112V5.55556H22.3055V4.86112Z" fill="#D9D9D9"/>
<path id="Vector_3" d="M22.3056 6.94444H2.69447C2.34822 6.94444 2.01614 7.08199 1.7713 7.32683C1.52647 7.57167 1.38892 7.90374 1.38892 8.25V20.9167C1.38892 21.2629 1.52647 21.595 1.7713 21.8398C2.01614 22.0847 2.34822 22.2222 2.69447 22.2222H22.3056C22.6518 22.2222 22.9839 22.0847 23.2287 21.8398C23.4736 21.595 23.6111 21.2629 23.6111 20.9167V8.25C23.6111 7.90374 23.4736 7.57167 23.2287 7.32683C22.9839 7.08199 22.6518 6.94444 22.3056 6.94444ZM5.94447 9.34028C6.35652 9.34028 6.75931 9.46246 7.10191 9.69138C7.44451 9.9203 7.71154 10.2457 7.86922 10.6264C8.0269 11.007 8.06816 11.4259 7.98777 11.83C7.90739 12.2342 7.70897 12.6054 7.41761 12.8967C7.12625 13.1881 6.75504 13.3865 6.35091 13.4669C5.94678 13.5473 5.52789 13.506 5.14721 13.3484C4.76653 13.1907 4.44116 12.9237 4.21224 12.581C3.98332 12.2384 3.86114 11.8357 3.86114 11.4236C3.86114 10.8711 4.08063 10.3412 4.47133 9.95047C4.86203 9.55977 5.39194 9.34028 5.94447 9.34028ZM20.8334 19.4444H4.16669L9.34725 14.2569C9.4396 14.1653 9.5644 14.1139 9.69447 14.1139C9.82454 14.1139 9.94934 14.1653 10.0417 14.2569L12.5972 16.8125L16.1181 13.1944C16.2104 13.1028 16.3352 13.0514 16.4653 13.0514C16.5954 13.0514 16.7202 13.1028 16.8125 13.1944L20.8334 17.2153V19.4444Z" fill="#D9D9D9"/>
</g>
<defs>
<clipPath id="clip0_4_638">
<rect width="25" height="25" fill="white"/>
</clipPath>
</defs>
</svg>
