<svg width="100%" height="100%" viewBox="0 0 24 24" fill="none" xmlns="http://www.w3.org/2000/svg">
<g id="material-symbols:privacy-tip">
<path id="Vector" d="M11 17H13V11H11V17ZM12 9C12.2833 9 12.521 8.904 12.713 8.712C12.9043 8.52067 13 8.28333 13 8C13 7.71667 12.9043 7.479 12.713 7.287C12.521 7.09567 12.2833 7 12 7C11.7167 7 11.4793 7.09567 11.288 7.287C11.096 7.479 11 7.71667 11 8C11 8.28333 11.096 8.52067 11.288 8.712C11.4793 8.904 11.7167 9 12 9ZM12 22C9.68333 21.4167 7.771 20.0873 6.263 18.012C4.75433 15.9373 4 13.6333 4 11.1V5L12 2L20 5V11.1C20 13.6333 19.246 15.9373 17.738 18.012C16.2293 20.0873 14.3167 21.4167 12 22Z" fill="#FDB623"/>
</g>
</svg>
