<svg width="100%" height="100%" viewBox="0 0 112 112" fill="none" xmlns="http://www.w3.org/2000/svg">
<g filter="url(#filter0_d_4_552)">
<rect x="21" y="21" width="70" height="70" rx="35" fill="#FDB623"/>
<g clip-path="url(#clip0_4_552)">
<path d="M36 37.25C36 36.9185 36.1317 36.6005 36.3661 36.3661C36.6005 36.1317 36.9185 36 37.25 36H44.75C45.0815 36 45.3995 36.1317 45.6339 36.3661C45.8683 36.6005 46 36.9185 46 37.25C46 37.5815 45.8683 37.8995 45.6339 38.1339C45.3995 38.3683 45.0815 38.5 44.75 38.5C41.2982 38.5 38.5 41.2982 38.5 44.75C38.5 45.0815 38.3683 45.3995 38.1339 45.6339C37.8995 45.8683 37.5815 46 37.25 46C36.9185 46 36.6005 45.8683 36.3661 45.6339C36.1317 45.3995 36 45.0815 36 44.75V37.25ZM66 37.25C66 36.9185 66.1317 36.6005 66.3661 36.3661C66.6005 36.1317 66.9185 36 67.25 36H74.75C75.0815 36 75.3995 36.1317 75.6339 36.3661C75.8683 36.6005 76 36.9185 76 37.25V44.75C76 45.0815 75.8683 45.3995 75.6339 45.6339C75.3995 45.8683 75.0815 46 74.75 46C74.4185 46 74.1005 45.8683 73.8661 45.6339C73.6317 45.3995 73.5 45.0815 73.5 44.75C73.5 41.2982 70.7018 38.5 67.25 38.5C66.9185 38.5 66.6005 38.3683 66.3661 38.1339C66.1317 37.8995 66 37.5815 66 37.25ZM37.25 66C37.5815 66 37.8995 66.1317 38.1339 66.3661C38.3683 66.6005 38.5 66.9185 38.5 67.25C38.5 70.7018 41.2982 73.5 44.75 73.5C45.0815 73.5 45.3995 73.6317 45.6339 73.8661C45.8683 74.1005 46 74.4185 46 74.75C46 75.0815 45.8683 75.3995 45.6339 75.6339C45.3995 75.8683 45.0815 76 44.75 76H37.25C36.9185 76 36.6005 75.8683 36.3661 75.6339C36.1317 75.3995 36 75.0815 36 74.75V67.25C36 66.9185 36.1317 66.6005 36.3661 66.3661C36.6005 66.1317 36.9185 66 37.25 66ZM74.75 66C75.0815 66 75.3995 66.1317 75.6339 66.3661C75.8683 66.6005 76 66.9185 76 67.25V74.75C76 75.0815 75.8683 75.3995 75.6339 75.6339C75.3995 75.8683 75.0815 76 74.75 76H67.25C66.9185 76 66.6005 75.8683 66.3661 75.6339C66.1317 75.3995 66 75.0815 66 74.75C66 74.4185 66.1317 74.1005 66.3661 73.8661C66.6005 73.6317 66.9185 73.5 67.25 73.5C70.7018 73.5 73.5 70.7018 73.5 67.25C73.5 66.9185 73.6317 66.6005 73.8661 66.3661C74.1005 66.1317 74.4185 66 74.75 66ZM46 47.25C46 46.5596 46.5596 46 47.25 46C47.9404 46 48.5 46.5596 48.5 47.25C48.5 47.9404 47.9404 48.5 47.25 48.5C46.5596 48.5 46 47.9404 46 47.25Z" fill="#333333"/>
<path d="M53.5 41H41V53.5H53.5V41ZM43.5 43.5H51V51H43.5V43.5ZM48.5 63.5H46V66H48.5V63.5Z" fill="white"/>
<path d="M53.5 58.5H41V71H53.5V58.5ZM43.5 61H51V68.5H43.5V61ZM63.5 46H66V48.5H63.5V46Z" fill="white"/>
<path d="M58.5 41H71V53.5H58.5V41ZM61 43.5V51H68.5V43.5H61ZM56 56V61H58.5V63.5H56V66H61V61H63.5V66H66V63.5H71V61H63.5V56H56ZM61 61H58.5V58.5H61V61ZM71 66H68.5V68.5H63.5V71H71V66ZM61 71V68.5H56V71H61Z" fill="white"/>
<path d="M66 58.5H71V56H66V58.5Z" fill="white"/>
<circle cx="47.2223" cy="47.2222" r="1.44444" fill="white"/>
<path d="M36.7778 56L75.5556 55.6667" stroke="#333333" stroke-width="7" stroke-linecap="round" stroke-linejoin="round"/>
</g>
</g>
<defs>
<filter id="filter0_d_4_552" x="0" y="0" width="112" height="112" filterUnits="userSpaceOnUse" color-interpolation-filters="sRGB">
<feFlood flood-opacity="0" result="BackgroundImageFix"/>
<feColorMatrix in="SourceAlpha" type="matrix" values="0 0 0 0 0 0 0 0 0 0 0 0 0 0 0 0 0 0 127 0" result="hardAlpha"/>
<feOffset/>
<feGaussianBlur stdDeviation="10.5"/>
<feComposite in2="hardAlpha" operator="out"/>
<feColorMatrix type="matrix" values="0 0 0 0 0.992157 0 0 0 0 0.713726 0 0 0 0 0.137255 0 0 0 1 0"/>
<feBlend mode="normal" in2="BackgroundImageFix" result="effect1_dropShadow_4_552"/>
<feBlend mode="normal" in="SourceGraphic" in2="effect1_dropShadow_4_552" result="shape"/>
</filter>
<clipPath id="clip0_4_552">
<rect width="40" height="40" fill="white" transform="translate(36 36)"/>
</clipPath>
</defs>
</svg>
